<svg _ngcontent-c5="" xml:space="preserve" xmlns:serif="http://www.serif.com/" xmlns:xlink="http://www.w3.org/1999/xlink" height="100%" style="fill-rule:evenodd;clip-rule:evenodd;stroke-linejoin:round;stroke-miterlimit:1.41421; width: 100px;" version="1.1" viewBox="0 0 256 256" width="100%" xmlns="http://www.w3.org/2000/svg"><g _ngcontent-c5="" id="Camera" stroke="none" fill="#000000" stroke-width="1px"><path _ngcontent-c5="" d="M244,71c0,-8.284 -6.716,-15 -15,-15c-41.936,0 -160.064,0 -202,0c-8.284,0 -15,6.716 -15,15c0,29.099 0,92.901 0,122c0,8.284 6.716,15 15,15c41.936,0 160.064,0 202,0c8.284,0 15,-6.716 15,-15c0,-29.099 0,-92.901 0,-122Z" style="" stroke="none" fill="#c5c3c3" stroke-width="1px"></path><circle _ngcontent-c5="" cx="156" cy="132" r="58" style="" stroke="none" fill="#b7b5b5" stroke-width="1px"></circle><circle _ngcontent-c5="" cx="156" cy="132" r="50" style="" stroke="none" fill="#cee7f4" stroke-width="1px"></circle><circle _ngcontent-c5="" cx="156" cy="132" r="37.5" style="" stroke="none" fill="#c6e2f3" stroke-width="1px"></circle><circle _ngcontent-c5="" cx="156" cy="132" r="25" style="" stroke="none" fill="#c6e2f3" stroke-width="1px"></circle><circle _ngcontent-c5="" cx="156" cy="132" r="12.5" style="" stroke="none" fill="#bddef1" stroke-width="1px"></circle><circle _ngcontent-c5="" cx="172" cy="104" r="4" style="" stroke="none" fill="#ecf6fb" stroke-width="1px"></circle><circle _ngcontent-c5="" cx="164" cy="114" r="2" style="" stroke="none" fill="#ecf6fb" stroke-width="1px"></circle><path _ngcontent-c5="" d="M196,49c0,-7.18 -5.82,-13 -13,-13c-13.967,0 -36.033,0 -50,0c-7.18,0 -13,5.82 -13,13c0,3.822 0,7 0,7l76,0c0,0 0,-3.178 0,-7Z" style="" stroke="none" fill="#bfbdbd" stroke-width="1px"></path><path _ngcontent-c5="" d="M56,55.998c0,-2.76 -2.238,-4.998 -4.998,-4.998c-4.358,0 -10.646,0 -15.004,0c-2.76,0 -4.998,2.238 -4.998,4.998c0,0.001 0,0.002 0,0.002l25,0c0,0 0,-0.001 0,-0.002Z" style="" stroke="none" fill="#b9b6b6" stroke-width="1px"></path><circle _ngcontent-c5="" cx="30" cy="74" r="6" style="" stroke="none" fill="#b9b6b6" stroke-width="1px"></circle></g></svg>