<svg _ngcontent-c5="" xml:space="preserve" xmlns:serif="http://www.serif.com/" xmlns:xlink="http://www.w3.org/1999/xlink" height="100%" style="fill-rule:evenodd;clip-rule:evenodd;stroke-linecap:round;stroke-linejoin:round;stroke-miterlimit:1.5;" version="1.1" viewBox="0 0 256 256" width="100%" xmlns="http://www.w3.org/2000/svg"><g _ngcontent-c5="" id="Laptop" stroke="none" fill="#000000" stroke-width="1px"><path _ngcontent-c5="" d="M237,58c0,-0.796 -0.316,-1.559 -0.879,-2.121c-0.562,-0.563 -1.325,-0.879 -2.121,-0.879c-24.372,0 -189.628,0 -214,0c-0.796,0 -1.559,0.316 -2.121,0.879c-0.563,0.562 -0.879,1.325 -0.879,2.121c0,19.211 0,124.789 0,144c0,0.796 0.316,1.559 0.879,2.121c0.562,0.563 1.325,0.879 2.121,0.879c24.372,0 189.628,0 214,0c0.796,0 1.559,-0.316 2.121,-0.879c0.563,-0.562 0.879,-1.325 0.879,-2.121c0,-19.211 0,-124.789 0,-144Z" id="Top" style="" stroke="none" fill="#d1d1d1" stroke-width="1px"></path><path _ngcontent-c5="" d="M252,192l-250,0c0,0 0,0 0,0c0,11.046 8.954,20 20,20c46.831,0 163.169,0 210,0c11.046,0 20,-8.954 20,-20c0,0 0,0 0,0Z" id="Bottom" style="" stroke="none" fill="#c5c3c3" stroke-width="1px"></path><path _ngcontent-c5="" serif:id="Handle Thing" d="M137,192l-20,0c0,0 0,0 0,0c0,1.657 1.343,3 3,3c3.776,0 10.224,0 14,0c1.657,0 3,-1.343 3,-3c0,0 0,0 0,0Z" id="Handle-Thing" style="" stroke="none" fill="#a4a4a4" stroke-width="1px"></path><path _ngcontent-c5="" d="M228,64.415c0,-0.53 -0.211,-1.039 -0.586,-1.414c-0.375,-0.375 -0.884,-0.586 -1.414,-0.586c-19.791,0 -180.209,0 -200,0c-0.53,0 -1.039,0.211 -1.414,0.586c-0.375,0.375 -0.586,0.884 -0.586,1.414c0,14.597 0,104.573 0,119.17c0,0.53 0.211,1.039 0.586,1.414c0.375,0.375 0.884,0.586 1.414,0.586c19.791,0 180.209,0 200,0c0.53,0 1.039,-0.211 1.414,-0.586c0.375,-0.375 0.586,-0.884 0.586,-1.414c0,-14.597 0,-104.573 0,-119.17Z" id="Screen" style="" stroke="none" fill="#8fb1c9" stroke-width="1px"></path><g _ngcontent-c5="" id="Window" stroke="none" fill="#000000" stroke-width="1px"><path _ngcontent-c5="" d="M160,85c0,-0.552 -0.448,-1 -1,-1c-10.009,0 -91.991,0 -102,0c-0.552,0 -1,0.448 -1,1c0,8.563 0,69.437 0,78c0,0.552 0.448,1 1,1c10.009,0 91.991,0 102,0c0.552,0 1,-0.448 1,-1c0,-8.563 0,-69.437 0,-78Z" style="" stroke="none" fill="#010035" stroke-width="1px"></path><rect _ngcontent-c5="" height="4" style="" width="104" x="56" y="84" stroke="none" fill="#b7b7b7" stroke-width="1px"></rect><g _ngcontent-c5="" stroke="none" fill="#000000" stroke-width="1px"><path _ngcontent-c5="" d="M60,118l24,0" style="" stroke="#ffffff" fill="none" stroke-width="3px"></path><path _ngcontent-c5="" d="M112,110l32,0" style="" stroke="#ff606c" fill="none" stroke-width="3px"></path><path _ngcontent-c5="" d="M60,102l28,0" style="" stroke="#7affa7" fill="none" stroke-width="3px"></path><path _ngcontent-c5="" d="M60,94l40,0" style="" stroke="#ff606c" fill="none" stroke-width="3px"></path><path _ngcontent-c5="" d="M104,94l32,0" style="" stroke="#ffffff" fill="none" stroke-width="3px"></path><path _ngcontent-c5="" d="M92,102l20,0" style="" stroke="#ffffff" fill="none" stroke-width="3px"></path><path _ngcontent-c5="" d="M60,102l28,0" style="" stroke="#fffd77" fill="none" stroke-width="3px"></path><path _ngcontent-c5="" d="M60,110l48,0" style="" stroke="#fffd77" fill="none" stroke-width="3px"></path><path _ngcontent-c5="" d="M60,126l32,0" style="" stroke="#ff606c" fill="none" stroke-width="3px"></path><path _ngcontent-c5="" d="M60,134l16,0" style="" stroke="#fffd77" fill="none" stroke-width="3px"></path><path _ngcontent-c5="" d="M80,134l44,0" style="" stroke="#ffffff" fill="none" stroke-width="3px"></path></g></g></g></svg>